# MagicaVoxel @ Ephtracy

# group
o 

# material
mtllib truck.mtl
usemtl palette

# normals
vn -1 0 0
vn 1 0 0
vn 0 0 1
vn 0 0 -1
vn 0 -1 0
vn 0 1 0

# texcoords
vt 0.00195313 0.5
vt 0.0332031 0.5
vt 0.0449219 0.5
vt 0.271484 0.5
vt 0.841797 0.5
vt 0.865234 0.5
vt 0.970703 0.5
vt 0.978516 0.5
vt 0.994141 0.5

# verts
v -0.5 0.4 1.6
v -0.5 0.4 1.4
v -0.5 0.5 1.6
v -0.5 0.5 1.4
v -0.4 0 1.4
v -0.4 0 1.1
v -0.4 0.1 1.3
v -0.4 0.1 1.2
v -0.4 0.2 1.5
v -0.4 0.2 1.4
v -0.4 0.2 1.3
v -0.4 0.2 1.2
v -0.4 0.2 1.1
v -0.4 0.2 1
v -0.4 0.3 1.5
v -0.4 0.3 1.4
v -0.4 0.4 1.5
v -0.4 0.4 1.4
v -0.4 0.4 1.2
v -0.4 0.5 1.5
v -0.4 0.5 1.4
v -0.4 0.7 1.5
v -0.4 0.7 1.2
v -0.4 0.8 1.5
v -0.4 0.8 1.2
v -0.4 1 1.2
v -0.4 1 1
v -0.3 0 0.8
v -0.3 0 0.5
v -0.3 0 0.4
v -0.3 0 0.1
v -0.3 0 -0.5
v -0.3 0 -0.8
v -0.3 0 -0.9
v -0.3 0 -1.2
v -0.3 0.1 0.7
v -0.3 0.1 0.6
v -0.3 0.1 0.3
v -0.3 0.1 0.2
v -0.3 0.1 -0.6
v -0.3 0.1 -0.7
v -0.3 0.1 -1
v -0.3 0.1 -1.1
v -0.3 0.2 1
v -0.3 0.2 0.8
v -0.3 0.2 0.7
v -0.3 0.2 0.6
v -0.3 0.2 0.5
v -0.3 0.2 0.4
v -0.3 0.2 0.3
v -0.3 0.2 0.2
v -0.3 0.2 0.1
v -0.3 0.2 -0.5
v -0.3 0.2 -0.6
v -0.3 0.2 -0.7
v -0.3 0.2 -0.8
v -0.3 0.2 -0.9
v -0.3 0.2 -1
v -0.3 0.2 -1.1
v -0.3 0.2 -1.2
v -0.3 0.2 -1.5
v -0.3 0.3 0.9
v -0.3 0.3 -1.4
v -0.3 0.3 -1.5
v -0.3 0.4 -1.4
v -0.3 0.4 -1.5
v -0.3 1 1
v -0.3 1.1 0.9
v -0.3 1.1 -1.4
v -0.3 1.2 1
v -0.3 1.2 -1.5
v 0.2 0 0.8
v 0.2 0 0.5
v 0.2 0 0.4
v 0.2 0 0.1
v 0.2 0 -0.5
v 0.2 0 -0.8
v 0.2 0 -0.9
v 0.2 0 -1.2
v 0.2 0.1 0.7
v 0.2 0.1 0.6
v 0.2 0.1 0.3
v 0.2 0.1 0.2
v 0.2 0.1 -0.6
v 0.2 0.1 -0.7
v 0.2 0.1 -1
v 0.2 0.1 -1.1
v 0.2 0.2 0.8
v 0.2 0.2 0.7
v 0.2 0.2 0.6
v 0.2 0.2 0.5
v 0.2 0.2 0.4
v 0.2 0.2 0.3
v 0.2 0.2 0.2
v 0.2 0.2 0.1
v 0.2 0.2 -0.5
v 0.2 0.2 -0.6
v 0.2 0.2 -0.7
v 0.2 0.2 -0.8
v 0.2 0.2 -0.9
v 0.2 0.2 -1
v 0.2 0.2 -1.1
v 0.2 0.2 -1.2
v 0.3 0 1.4
v 0.3 0 1.1
v 0.3 0.1 1.3
v 0.3 0.1 1.2
v 0.3 0.2 1.4
v 0.3 0.2 1.3
v 0.3 0.2 1.2
v 0.3 0.2 1.1
v -0.3 0 1.4
v -0.3 0 1.1
v -0.3 0.1 1.3
v -0.3 0.1 1.2
v -0.3 0.2 1.4
v -0.3 0.2 1.3
v -0.3 0.2 1.2
v -0.3 0.2 1.1
v -0.2 0 0.8
v -0.2 0 0.5
v -0.2 0 0.4
v -0.2 0 0.1
v -0.2 0 -0.5
v -0.2 0 -0.8
v -0.2 0 -0.9
v -0.2 0 -1.2
v -0.2 0.1 0.7
v -0.2 0.1 0.6
v -0.2 0.1 0.3
v -0.2 0.1 0.2
v -0.2 0.1 -0.6
v -0.2 0.1 -0.7
v -0.2 0.1 -1
v -0.2 0.1 -1.1
v -0.2 0.2 0.8
v -0.2 0.2 0.7
v -0.2 0.2 0.6
v -0.2 0.2 0.5
v -0.2 0.2 0.4
v -0.2 0.2 0.3
v -0.2 0.2 0.2
v -0.2 0.2 0.1
v -0.2 0.2 -0.5
v -0.2 0.2 -0.6
v -0.2 0.2 -0.7
v -0.2 0.2 -0.8
v -0.2 0.2 -0.9
v -0.2 0.2 -1
v -0.2 0.2 -1.1
v -0.2 0.2 -1.2
v 0.3 0 0.8
v 0.3 0 0.5
v 0.3 0 0.4
v 0.3 0 0.1
v 0.3 0 -0.5
v 0.3 0 -0.8
v 0.3 0 -0.9
v 0.3 0 -1.2
v 0.3 0.1 0.7
v 0.3 0.1 0.6
v 0.3 0.1 0.3
v 0.3 0.1 0.2
v 0.3 0.1 -0.6
v 0.3 0.1 -0.7
v 0.3 0.1 -1
v 0.3 0.1 -1.1
v 0.3 0.2 1
v 0.3 0.2 0.8
v 0.3 0.2 0.7
v 0.3 0.2 0.6
v 0.3 0.2 0.5
v 0.3 0.2 0.4
v 0.3 0.2 0.3
v 0.3 0.2 0.2
v 0.3 0.2 0.1
v 0.3 0.2 -0.5
v 0.3 0.2 -0.6
v 0.3 0.2 -0.7
v 0.3 0.2 -0.8
v 0.3 0.2 -0.9
v 0.3 0.2 -1
v 0.3 0.2 -1.1
v 0.3 0.2 -1.2
v 0.3 0.2 -1.5
v 0.3 0.3 0.9
v 0.3 0.3 -1.4
v 0.3 0.3 -1.5
v 0.3 0.4 -1.4
v 0.3 0.4 -1.5
v 0.3 1 1
v 0.3 1.1 0.9
v 0.3 1.1 -1.4
v 0.3 1.2 1
v 0.3 1.2 -1.5
v 0.4 0 1.4
v 0.4 0 1.1
v 0.4 0.1 1.3
v 0.4 0.1 1.2
v 0.4 0.2 1.5
v 0.4 0.2 1.4
v 0.4 0.2 1.3
v 0.4 0.2 1.2
v 0.4 0.2 1.1
v 0.4 0.2 1
v 0.4 0.3 1.5
v 0.4 0.3 1.4
v 0.4 0.4 1.5
v 0.4 0.4 1.4
v 0.4 0.4 1.2
v 0.4 0.5 1.5
v 0.4 0.5 1.4
v 0.4 0.7 1.5
v 0.4 0.7 1.2
v 0.4 0.8 1.5
v 0.4 0.8 1.2
v 0.4 1 1.2
v 0.4 1 1
v 0.5 0.4 1.6
v 0.5 0.4 1.4
v 0.5 0.5 1.6
v 0.5 0.5 1.4
v -0.5 0.4 1.6
v -0.5 0.5 1.6
v 0.5 0.4 1.6
v 0.5 0.5 1.6
v -0.4 0.2 1.5
v -0.4 0.3 1.5
v -0.4 0.4 1.5
v -0.4 0.5 1.5
v -0.4 0.7 1.5
v -0.4 0.8 1.5
v -0.2 0.3 1.5
v -0.2 0.4 1.5
v 0.2 0.3 1.5
v 0.2 0.4 1.5
v 0.4 0.2 1.5
v 0.4 0.3 1.5
v 0.4 0.4 1.5
v 0.4 0.5 1.5
v 0.4 0.7 1.5
v 0.4 0.8 1.5
v -0.4 0 1.4
v -0.4 0.2 1.4
v -0.3 0 1.4
v -0.3 0.2 1.4
v 0.3 0 1.4
v 0.3 0.2 1.4
v 0.4 0 1.4
v 0.4 0.2 1.4
v -0.4 0.8 1.2
v -0.4 1 1.2
v 0.4 0.8 1.2
v 0.4 1 1.2
v -0.3 1 1
v -0.3 1.2 1
v -0.2 1 1
v -0.2 1.1 1
v 0.2 1 1
v 0.2 1.1 1
v 0.3 1 1
v 0.3 1.2 1
v -0.3 0 0.8
v -0.3 0.2 0.8
v -0.2 0 0.8
v -0.2 0.2 0.8
v 0.2 0 0.8
v 0.2 0.2 0.8
v 0.3 0 0.8
v 0.3 0.2 0.8
v -0.3 0 0.4
v -0.3 0.2 0.4
v -0.2 0 0.4
v -0.2 0.2 0.4
v 0.2 0 0.4
v 0.2 0.2 0.4
v 0.3 0 0.4
v 0.3 0.2 0.4
v -0.3 0 -0.5
v -0.3 0.2 -0.5
v -0.2 0 -0.5
v -0.2 0.2 -0.5
v 0.2 0 -0.5
v 0.2 0.2 -0.5
v 0.3 0 -0.5
v 0.3 0.2 -0.5
v -0.3 0 -0.9
v -0.3 0.2 -0.9
v -0.2 0 -0.9
v -0.2 0.2 -0.9
v 0.2 0 -0.9
v 0.2 0.2 -0.9
v 0.3 0 -0.9
v 0.3 0.2 -0.9
v -0.5 0.4 1.4
v -0.5 0.5 1.4
v -0.4 0.4 1.4
v -0.4 0.5 1.4
v 0.4 0.4 1.4
v 0.4 0.5 1.4
v 0.5 0.4 1.4
v 0.5 0.5 1.4
v -0.4 0 1.1
v -0.4 0.2 1.1
v -0.3 0 1.1
v -0.3 0.2 1.1
v 0.3 0 1.1
v 0.3 0.2 1.1
v 0.4 0 1.1
v 0.4 0.2 1.1
v -0.4 0.2 1
v -0.4 1 1
v -0.3 0.2 1
v -0.3 1 1
v 0.3 0.2 1
v 0.3 1 1
v 0.4 0.2 1
v 0.4 1 1
v -0.3 0 0.5
v -0.3 0.2 0.5
v -0.2 0 0.5
v -0.2 0.2 0.5
v 0.2 0 0.5
v 0.2 0.2 0.5
v 0.3 0 0.5
v 0.3 0.2 0.5
v -0.3 0 0.1
v -0.3 0.2 0.1
v -0.2 0 0.1
v -0.2 0.2 0.1
v 0.2 0 0.1
v 0.2 0.2 0.1
v 0.3 0 0.1
v 0.3 0.2 0.1
v -0.3 0 -0.8
v -0.3 0.2 -0.8
v -0.2 0 -0.8
v -0.2 0.2 -0.8
v 0.2 0 -0.8
v 0.2 0.2 -0.8
v 0.3 0 -0.8
v 0.3 0.2 -0.8
v -0.3 0 -1.2
v -0.3 0.2 -1.2
v -0.2 0 -1.2
v -0.2 0.2 -1.2
v 0.2 0 -1.2
v 0.2 0.2 -1.2
v 0.3 0 -1.2
v 0.3 0.2 -1.2
v -0.3 0.2 -1.5
v -0.3 0.3 -1.5
v -0.3 0.4 -1.5
v -0.3 1.2 -1.5
v -0.2 0.3 -1.5
v -0.2 0.4 -1.5
v -0.2 1.1 -1.5
v -0.1 0.3 -1.5
v -0.1 0.4 -1.5
v 0.1 0.3 -1.5
v 0.1 0.4 -1.5
v 0.2 0.3 -1.5
v 0.2 0.4 -1.5
v 0.2 1.1 -1.5
v 0.3 0.2 -1.5
v 0.3 0.3 -1.5
v 0.3 0.4 -1.5
v 0.3 1.2 -1.5
v -0.4 0 1.4
v -0.3 0 1.4
v 0.3 0 1.4
v 0.4 0 1.4
v -0.4 0 1.1
v -0.3 0 1.1
v 0.3 0 1.1
v 0.4 0 1.1
v -0.3 0 0.8
v -0.2 0 0.8
v 0.2 0 0.8
v 0.3 0 0.8
v -0.3 0 0.5
v -0.2 0 0.5
v 0.2 0 0.5
v 0.3 0 0.5
v -0.3 0 0.4
v -0.2 0 0.4
v 0.2 0 0.4
v 0.3 0 0.4
v -0.3 0 0.1
v -0.2 0 0.1
v 0.2 0 0.1
v 0.3 0 0.1
v -0.3 0 -0.5
v -0.2 0 -0.5
v 0.2 0 -0.5
v 0.3 0 -0.5
v -0.3 0 -0.8
v -0.2 0 -0.8
v 0.2 0 -0.8
v 0.3 0 -0.8
v -0.3 0 -0.9
v -0.2 0 -0.9
v 0.2 0 -0.9
v 0.3 0 -0.9
v -0.3 0 -1.2
v -0.2 0 -1.2
v 0.2 0 -1.2
v 0.3 0 -1.2
v -0.4 0.2 1.5
v 0.4 0.2 1.5
v -0.4 0.2 1.4
v -0.3 0.2 1.4
v 0.3 0.2 1.4
v 0.4 0.2 1.4
v -0.3 0.2 1.3
v 0.3 0.2 1.3
v -0.3 0.2 1.2
v 0.3 0.2 1.2
v -0.4 0.2 1.1
v -0.3 0.2 1.1
v 0.3 0.2 1.1
v 0.4 0.2 1.1
v -0.4 0.2 1
v -0.3 0.2 1
v -0.2 0.2 1
v 0.2 0.2 1
v 0.3 0.2 1
v 0.4 0.2 1
v -0.3 0.2 0.8
v -0.2 0.2 0.8
v 0.2 0.2 0.8
v 0.3 0.2 0.8
v -0.2 0.2 0.7
v 0.2 0.2 0.7
v -0.2 0.2 0.6
v 0.2 0.2 0.6
v -0.3 0.2 0.5
v -0.2 0.2 0.5
v 0.2 0.2 0.5
v 0.3 0.2 0.5
v -0.3 0.2 0.4
v -0.2 0.2 0.4
v 0.2 0.2 0.4
v 0.3 0.2 0.4
v -0.2 0.2 0.3
v 0.2 0.2 0.3
v -0.2 0.2 0.2
v 0.2 0.2 0.2
v -0.3 0.2 0.1
v -0.2 0.2 0.1
v 0.2 0.2 0.1
v 0.3 0.2 0.1
v -0.3 0.2 -0.5
v -0.2 0.2 -0.5
v 0.2 0.2 -0.5
v 0.3 0.2 -0.5
v -0.2 0.2 -0.6
v 0.2 0.2 -0.6
v -0.2 0.2 -0.7
v 0.2 0.2 -0.7
v -0.3 0.2 -0.8
v -0.2 0.2 -0.8
v 0.2 0.2 -0.8
v 0.3 0.2 -0.8
v -0.3 0.2 -0.9
v -0.2 0.2 -0.9
v 0.2 0.2 -0.9
v 0.3 0.2 -0.9
v -0.2 0.2 -1
v 0.2 0.2 -1
v -0.2 0.2 -1.1
v 0.2 0.2 -1.1
v -0.3 0.2 -1.2
v -0.2 0.2 -1.2
v 0.2 0.2 -1.2
v 0.3 0.2 -1.2
v -0.2 0.2 -1.4
v 0.2 0.2 -1.4
v -0.3 0.2 -1.5
v 0.3 0.2 -1.5
v -0.5 0.4 1.6
v 0.5 0.4 1.6
v -0.4 0.4 1.5
v -0.2 0.4 1.5
v 0.2 0.4 1.5
v 0.4 0.4 1.5
v -0.5 0.4 1.4
v -0.4 0.4 1.4
v 0.4 0.4 1.4
v 0.5 0.4 1.4
v -0.5 0.5 1.6
v 0.5 0.5 1.6
v -0.4 0.5 1.5
v 0.4 0.5 1.5
v -0.5 0.5 1.4
v -0.4 0.5 1.4
v 0.4 0.5 1.4
v 0.5 0.5 1.4
v -0.4 0.8 1.5
v 0.4 0.8 1.5
v -0.4 0.8 1.2
v 0.4 0.8 1.2
v -0.4 1 1.2
v 0.4 1 1.2
v -0.4 1 1
v -0.3 1 1
v -0.2 1 1
v 0.2 1 1
v 0.3 1 1
v 0.4 1 1
v -0.3 1.2 1
v 0.3 1.2 1
v -0.2 1.2 0.9
v 0.2 1.2 0.9
v -0.2 1.2 -1.4
v 0.2 1.2 -1.4
v -0.3 1.2 -1.5
v 0.3 1.2 -1.5

# faces
f 3/8/1 2/8/1 1/8/1
f 4/8/1 2/8/1 3/8/1
f 7/9/1 6/9/1 5/9/1
f 8/9/1 6/9/1 7/9/1
f 10/9/1 7/9/1 5/9/1
f 11/7/1 8/7/1 7/7/1
f 11/9/1 7/9/1 10/9/1
f 12/9/1 6/9/1 8/9/1
f 12/7/1 8/7/1 11/7/1
f 13/9/1 6/9/1 12/9/1
f 15/6/1 11/6/1 10/6/1
f 15/6/1 14/6/1 13/6/1
f 15/6/1 13/6/1 12/6/1
f 15/6/1 12/6/1 11/6/1
f 15/6/1 10/6/1 9/6/1
f 16/6/1 14/6/1 15/6/1
f 17/1/1 16/1/1 15/1/1
f 18/6/1 14/6/1 16/6/1
f 18/1/1 16/1/1 17/1/1
f 19/6/1 14/6/1 18/6/1
f 21/9/1 19/9/1 18/9/1
f 22/9/1 21/9/1 20/9/1
f 23/6/1 14/6/1 19/6/1
f 23/9/1 21/9/1 22/9/1
f 23/9/1 19/9/1 21/9/1
f 24/6/1 23/6/1 22/6/1
f 25/6/1 14/6/1 23/6/1
f 25/6/1 23/6/1 24/6/1
f 26/6/1 14/6/1 25/6/1
f 27/6/1 14/6/1 26/6/1
f 36/9/1 29/9/1 28/9/1
f 37/9/1 29/9/1 36/9/1
f 38/9/1 31/9/1 30/9/1
f 39/9/1 31/9/1 38/9/1
f 40/9/1 33/9/1 32/9/1
f 41/9/1 33/9/1 40/9/1
f 42/9/1 35/9/1 34/9/1
f 43/9/1 35/9/1 42/9/1
f 45/9/1 36/9/1 28/9/1
f 46/7/1 37/7/1 36/7/1
f 46/9/1 36/9/1 45/9/1
f 47/9/1 29/9/1 37/9/1
f 47/7/1 37/7/1 46/7/1
f 48/9/1 29/9/1 47/9/1
f 49/9/1 38/9/1 30/9/1
f 50/7/1 39/7/1 38/7/1
f 50/9/1 38/9/1 49/9/1
f 51/9/1 31/9/1 39/9/1
f 51/7/1 39/7/1 50/7/1
f 52/9/1 31/9/1 51/9/1
f 53/9/1 40/9/1 32/9/1
f 54/7/1 41/7/1 40/7/1
f 54/9/1 40/9/1 53/9/1
f 55/9/1 33/9/1 41/9/1
f 55/7/1 41/7/1 54/7/1
f 56/9/1 33/9/1 55/9/1
f 57/9/1 42/9/1 34/9/1
f 58/7/1 43/7/1 42/7/1
f 58/9/1 42/9/1 57/9/1
f 59/9/1 35/9/1 43/9/1
f 59/7/1 43/7/1 58/7/1
f 60/9/1 35/9/1 59/9/1
f 62/4/1 54/4/1 53/4/1
f 62/4/1 61/4/1 60/4/1
f 62/4/1 60/4/1 59/4/1
f 62/4/1 59/4/1 58/4/1
f 62/4/1 46/4/1 45/4/1
f 62/4/1 55/4/1 54/4/1
f 62/4/1 50/4/1 49/4/1
f 62/4/1 51/4/1 50/4/1
f 62/4/1 58/4/1 57/4/1
f 62/4/1 47/4/1 46/4/1
f 62/4/1 45/4/1 44/4/1
f 62/4/1 57/4/1 56/4/1
f 62/4/1 56/4/1 55/4/1
f 62/4/1 53/4/1 52/4/1
f 62/4/1 52/4/1 51/4/1
f 62/4/1 49/4/1 48/4/1
f 62/4/1 48/4/1 47/4/1
f 63/4/1 61/4/1 62/4/1
f 64/4/1 61/4/1 63/4/1
f 65/2/1 63/2/1 62/2/1
f 65/3/1 64/3/1 63/3/1
f 66/3/1 64/3/1 65/3/1
f 67/4/1 62/4/1 44/4/1
f 68/2/1 65/2/1 62/2/1
f 68/4/1 62/4/1 67/4/1
f 69/4/1 66/4/1 65/4/1
f 69/2/1 65/2/1 68/2/1
f 70/4/1 68/4/1 67/4/1
f 70/4/1 69/4/1 68/4/1
f 71/4/1 66/4/1 69/4/1
f 71/4/1 69/4/1 70/4/1
f 80/9/1 73/9/1 72/9/1
f 81/9/1 73/9/1 80/9/1
f 82/9/1 75/9/1 74/9/1
f 83/9/1 75/9/1 82/9/1
f 84/9/1 77/9/1 76/9/1
f 85/9/1 77/9/1 84/9/1
f 86/9/1 79/9/1 78/9/1
f 87/9/1 79/9/1 86/9/1
f 88/9/1 80/9/1 72/9/1
f 89/7/1 81/7/1 80/7/1
f 89/9/1 80/9/1 88/9/1
f 90/9/1 73/9/1 81/9/1
f 90/7/1 81/7/1 89/7/1
f 91/9/1 73/9/1 90/9/1
f 92/9/1 82/9/1 74/9/1
f 93/7/1 83/7/1 82/7/1
f 93/9/1 82/9/1 92/9/1
f 94/9/1 75/9/1 83/9/1
f 94/7/1 83/7/1 93/7/1
f 95/9/1 75/9/1 94/9/1
f 96/9/1 84/9/1 76/9/1
f 97/7/1 85/7/1 84/7/1
f 97/9/1 84/9/1 96/9/1
f 98/9/1 77/9/1 85/9/1
f 98/7/1 85/7/1 97/7/1
f 99/9/1 77/9/1 98/9/1
f 100/9/1 86/9/1 78/9/1
f 101/7/1 87/7/1 86/7/1
f 101/9/1 86/9/1 100/9/1
f 102/9/1 79/9/1 87/9/1
f 102/7/1 87/7/1 101/7/1
f 103/9/1 79/9/1 102/9/1
f 106/9/1 105/9/1 104/9/1
f 107/9/1 105/9/1 106/9/1
f 108/9/1 106/9/1 104/9/1
f 109/7/1 107/7/1 106/7/1
f 109/9/1 106/9/1 108/9/1
f 110/9/1 105/9/1 107/9/1
f 110/7/1 107/7/1 109/7/1
f 111/9/1 105/9/1 110/9/1
f 112/9/2 113/9/2 114/9/2
f 114/9/2 113/9/2 115/9/2
f 112/9/2 114/9/2 116/9/2
f 114/7/2 115/7/2 117/7/2
f 116/9/2 114/9/2 117/9/2
f 115/9/2 113/9/2 118/9/2
f 117/7/2 115/7/2 118/7/2
f 118/9/2 113/9/2 119/9/2
f 120/9/2 121/9/2 128/9/2
f 128/9/2 121/9/2 129/9/2
f 122/9/2 123/9/2 130/9/2
f 130/9/2 123/9/2 131/9/2
f 124/9/2 125/9/2 132/9/2
f 132/9/2 125/9/2 133/9/2
f 126/9/2 127/9/2 134/9/2
f 134/9/2 127/9/2 135/9/2
f 120/9/2 128/9/2 136/9/2
f 128/7/2 129/7/2 137/7/2
f 136/9/2 128/9/2 137/9/2
f 129/9/2 121/9/2 138/9/2
f 137/7/2 129/7/2 138/7/2
f 138/9/2 121/9/2 139/9/2
f 122/9/2 130/9/2 140/9/2
f 130/7/2 131/7/2 141/7/2
f 140/9/2 130/9/2 141/9/2
f 131/9/2 123/9/2 142/9/2
f 141/7/2 131/7/2 142/7/2
f 142/9/2 123/9/2 143/9/2
f 124/9/2 132/9/2 144/9/2
f 132/7/2 133/7/2 145/7/2
f 144/9/2 132/9/2 145/9/2
f 133/9/2 125/9/2 146/9/2
f 145/7/2 133/7/2 146/7/2
f 146/9/2 125/9/2 147/9/2
f 126/9/2 134/9/2 148/9/2
f 134/7/2 135/7/2 149/7/2
f 148/9/2 134/9/2 149/9/2
f 135/9/2 127/9/2 150/9/2
f 149/7/2 135/7/2 150/7/2
f 150/9/2 127/9/2 151/9/2
f 152/9/2 153/9/2 160/9/2
f 160/9/2 153/9/2 161/9/2
f 154/9/2 155/9/2 162/9/2
f 162/9/2 155/9/2 163/9/2
f 156/9/2 157/9/2 164/9/2
f 164/9/2 157/9/2 165/9/2
f 158/9/2 159/9/2 166/9/2
f 166/9/2 159/9/2 167/9/2
f 152/9/2 160/9/2 169/9/2
f 160/7/2 161/7/2 170/7/2
f 169/9/2 160/9/2 170/9/2
f 161/9/2 153/9/2 171/9/2
f 170/7/2 161/7/2 171/7/2
f 171/9/2 153/9/2 172/9/2
f 154/9/2 162/9/2 173/9/2
f 162/7/2 163/7/2 174/7/2
f 173/9/2 162/9/2 174/9/2
f 163/9/2 155/9/2 175/9/2
f 174/7/2 163/7/2 175/7/2
f 175/9/2 155/9/2 176/9/2
f 156/9/2 164/9/2 177/9/2
f 164/7/2 165/7/2 178/7/2
f 177/9/2 164/9/2 178/9/2
f 165/9/2 157/9/2 179/9/2
f 178/7/2 165/7/2 179/7/2
f 179/9/2 157/9/2 180/9/2
f 158/9/2 166/9/2 181/9/2
f 166/7/2 167/7/2 182/7/2
f 181/9/2 166/9/2 182/9/2
f 167/9/2 159/9/2 183/9/2
f 182/7/2 167/7/2 183/7/2
f 183/9/2 159/9/2 184/9/2
f 177/4/2 178/4/2 186/4/2
f 184/4/2 185/4/2 186/4/2
f 183/4/2 184/4/2 186/4/2
f 182/4/2 183/4/2 186/4/2
f 169/4/2 170/4/2 186/4/2
f 178/4/2 179/4/2 186/4/2
f 173/4/2 174/4/2 186/4/2
f 174/4/2 175/4/2 186/4/2
f 181/4/2 182/4/2 186/4/2
f 170/4/2 171/4/2 186/4/2
f 168/4/2 169/4/2 186/4/2
f 180/4/2 181/4/2 186/4/2
f 179/4/2 180/4/2 186/4/2
f 176/4/2 177/4/2 186/4/2
f 175/4/2 176/4/2 186/4/2
f 172/4/2 173/4/2 186/4/2
f 171/4/2 172/4/2 186/4/2
f 186/4/2 185/4/2 187/4/2
f 187/4/2 185/4/2 188/4/2
f 186/2/2 187/2/2 189/2/2
f 187/3/2 188/3/2 189/3/2
f 189/3/2 188/3/2 190/3/2
f 168/4/2 186/4/2 191/4/2
f 186/2/2 189/2/2 192/2/2
f 191/4/2 186/4/2 192/4/2
f 189/4/2 190/4/2 193/4/2
f 192/2/2 189/2/2 193/2/2
f 191/4/2 192/4/2 194/4/2
f 192/4/2 193/4/2 194/4/2
f 193/4/2 190/4/2 195/4/2
f 194/4/2 193/4/2 195/4/2
f 196/9/2 197/9/2 198/9/2
f 198/9/2 197/9/2 199/9/2
f 196/9/2 198/9/2 201/9/2
f 198/7/2 199/7/2 202/7/2
f 201/9/2 198/9/2 202/9/2
f 199/9/2 197/9/2 203/9/2
f 202/7/2 199/7/2 203/7/2
f 203/9/2 197/9/2 204/9/2
f 201/6/2 202/6/2 206/6/2
f 204/6/2 205/6/2 206/6/2
f 203/6/2 204/6/2 206/6/2
f 202/6/2 203/6/2 206/6/2
f 200/6/2 201/6/2 206/6/2
f 206/6/2 205/6/2 207/6/2
f 206/1/2 207/1/2 208/1/2
f 207/6/2 205/6/2 209/6/2
f 208/1/2 207/1/2 209/1/2
f 209/6/2 205/6/2 210/6/2
f 209/9/2 210/9/2 212/9/2
f 211/9/2 212/9/2 213/9/2
f 210/6/2 205/6/2 214/6/2
f 213/9/2 212/9/2 214/9/2
f 212/9/2 210/9/2 214/9/2
f 213/6/2 214/6/2 215/6/2
f 214/6/2 205/6/2 216/6/2
f 215/6/2 214/6/2 216/6/2
f 216/6/2 205/6/2 217/6/2
f 217/6/2 205/6/2 218/6/2
f 219/8/2 220/8/2 221/8/2
f 221/8/2 220/8/2 222/8/2
f 225/8/3 224/8/3 223/8/3
f 226/8/3 224/8/3 225/8/3
f 233/6/3 228/6/3 227/6/3
f 233/1/3 229/1/3 228/1/3
f 234/1/3 229/1/3 233/1/3
f 235/6/3 233/6/3 227/6/3
f 235/6/3 234/6/3 233/6/3
f 236/6/3 234/6/3 235/6/3
f 237/6/3 235/6/3 227/6/3
f 238/1/3 236/1/3 235/1/3
f 238/6/3 235/6/3 237/6/3
f 239/1/3 236/1/3 238/1/3
f 240/9/3 231/9/3 230/9/3
f 241/6/3 232/6/3 231/6/3
f 241/9/3 231/9/3 240/9/3
f 242/6/3 232/6/3 241/6/3
f 245/9/3 244/9/3 243/9/3
f 246/9/3 244/9/3 245/9/3
f 249/9/3 248/9/3 247/9/3
f 250/9/3 248/9/3 249/9/3
f 253/6/3 252/6/3 251/6/3
f 254/6/3 252/6/3 253/6/3
f 257/4/3 256/4/3 255/4/3
f 258/4/3 256/4/3 257/4/3
f 259/2/3 258/2/3 257/2/3
f 260/4/3 256/4/3 258/4/3
f 260/2/3 258/2/3 259/2/3
f 261/4/3 260/4/3 259/4/3
f 262/4/3 256/4/3 260/4/3
f 262/4/3 260/4/3 261/4/3
f 265/9/3 264/9/3 263/9/3
f 266/9/3 264/9/3 265/9/3
f 269/9/3 268/9/3 267/9/3
f 270/9/3 268/9/3 269/9/3
f 273/9/3 272/9/3 271/9/3
f 274/9/3 272/9/3 273/9/3
f 277/9/3 276/9/3 275/9/3
f 278/9/3 276/9/3 277/9/3
f 281/9/3 280/9/3 279/9/3
f 282/9/3 280/9/3 281/9/3
f 285/9/3 284/9/3 283/9/3
f 286/9/3 284/9/3 285/9/3
f 289/9/3 288/9/3 287/9/3
f 290/9/3 288/9/3 289/9/3
f 293/9/3 292/9/3 291/9/3
f 294/9/3 292/9/3 293/9/3
f 295/8/4 296/8/4 297/8/4
f 297/8/4 296/8/4 298/8/4
f 299/8/4 300/8/4 301/8/4
f 301/8/4 300/8/4 302/8/4
f 303/9/4 304/9/4 305/9/4
f 305/9/4 304/9/4 306/9/4
f 307/9/4 308/9/4 309/9/4
f 309/9/4 308/9/4 310/9/4
f 311/6/4 312/6/4 313/6/4
f 313/6/4 312/6/4 314/6/4
f 315/6/4 316/6/4 317/6/4
f 317/6/4 316/6/4 318/6/4
f 319/9/4 320/9/4 321/9/4
f 321/9/4 320/9/4 322/9/4
f 323/9/4 324/9/4 325/9/4
f 325/9/4 324/9/4 326/9/4
f 327/9/4 328/9/4 329/9/4
f 329/9/4 328/9/4 330/9/4
f 331/9/4 332/9/4 333/9/4
f 333/9/4 332/9/4 334/9/4
f 335/9/4 336/9/4 337/9/4
f 337/9/4 336/9/4 338/9/4
f 339/9/4 340/9/4 341/9/4
f 341/9/4 340/9/4 342/9/4
f 343/9/4 344/9/4 345/9/4
f 345/9/4 344/9/4 346/9/4
f 347/9/4 348/9/4 349/9/4
f 349/9/4 348/9/4 350/9/4
f 351/4/4 352/4/4 355/4/4
f 352/3/4 353/3/4 355/3/4
f 353/4/4 354/4/4 356/4/4
f 355/3/4 353/3/4 356/3/4
f 356/4/4 354/4/4 357/4/4
f 351/4/4 355/4/4 358/4/4
f 355/5/4 356/5/4 358/5/4
f 356/2/4 357/2/4 359/2/4
f 358/5/4 356/5/4 359/5/4
f 351/4/4 358/4/4 360/4/4
f 358/2/4 359/2/4 360/2/4
f 359/2/4 357/2/4 361/2/4
f 360/2/4 359/2/4 361/2/4
f 351/4/4 360/4/4 362/4/4
f 360/5/4 361/5/4 362/5/4
f 361/2/4 357/2/4 363/2/4
f 362/5/4 361/5/4 363/5/4
f 357/4/4 354/4/4 364/4/4
f 363/2/4 357/2/4 364/2/4
f 351/4/4 362/4/4 365/4/4
f 362/3/4 363/3/4 366/3/4
f 365/4/4 362/4/4 366/4/4
f 363/4/4 364/4/4 367/4/4
f 366/3/4 363/3/4 367/3/4
f 364/4/4 354/4/4 368/4/4
f 367/4/4 364/4/4 368/4/4
f 373/9/5 370/9/5 369/9/5
f 374/9/5 370/9/5 373/9/5
f 375/9/5 372/9/5 371/9/5
f 376/9/5 372/9/5 375/9/5
f 381/9/5 378/9/5 377/9/5
f 382/9/5 378/9/5 381/9/5
f 383/9/5 380/9/5 379/9/5
f 384/9/5 380/9/5 383/9/5
f 389/9/5 386/9/5 385/9/5
f 390/9/5 386/9/5 389/9/5
f 391/9/5 388/9/5 387/9/5
f 392/9/5 388/9/5 391/9/5
f 397/9/5 394/9/5 393/9/5
f 398/9/5 394/9/5 397/9/5
f 399/9/5 396/9/5 395/9/5
f 400/9/5 396/9/5 399/9/5
f 405/9/5 402/9/5 401/9/5
f 406/9/5 402/9/5 405/9/5
f 407/9/5 404/9/5 403/9/5
f 408/9/5 404/9/5 407/9/5
f 411/6/5 410/6/5 409/6/5
f 412/6/5 410/6/5 411/6/5
f 413/6/5 410/6/5 412/6/5
f 414/6/5 410/6/5 413/6/5
f 415/6/5 413/6/5 412/6/5
f 416/6/5 413/6/5 415/6/5
f 417/6/5 416/6/5 415/6/5
f 418/6/5 416/6/5 417/6/5
f 420/6/5 418/6/5 417/6/5
f 421/6/5 418/6/5 420/6/5
f 423/6/5 421/6/5 420/6/5
f 423/6/5 422/6/5 421/6/5
f 423/6/5 420/6/5 419/6/5
f 424/6/5 422/6/5 423/6/5
f 425/6/5 422/6/5 424/6/5
f 426/6/5 422/6/5 425/6/5
f 427/6/5 422/6/5 426/6/5
f 428/6/5 422/6/5 427/6/5
f 429/4/5 425/4/5 424/4/5
f 430/6/5 426/6/5 425/6/5
f 430/4/5 425/4/5 429/4/5
f 431/4/5 427/4/5 426/4/5
f 431/6/5 426/6/5 430/6/5
f 432/4/5 427/4/5 431/4/5
f 433/6/5 431/6/5 430/6/5
f 434/6/5 431/6/5 433/6/5
f 435/6/5 434/6/5 433/6/5
f 436/6/5 434/6/5 435/6/5
f 438/6/5 436/6/5 435/6/5
f 439/6/5 436/6/5 438/6/5
f 441/4/5 438/4/5 437/4/5
f 442/6/5 439/6/5 438/6/5
f 442/4/5 438/4/5 441/4/5
f 443/4/5 440/4/5 439/4/5
f 443/6/5 439/6/5 442/6/5
f 444/4/5 440/4/5 443/4/5
f 445/6/5 443/6/5 442/6/5
f 446/6/5 443/6/5 445/6/5
f 447/6/5 446/6/5 445/6/5
f 448/6/5 446/6/5 447/6/5
f 450/6/5 448/6/5 447/6/5
f 451/6/5 448/6/5 450/6/5
f 453/4/5 450/4/5 449/4/5
f 454/6/5 451/6/5 450/6/5
f 454/4/5 450/4/5 453/4/5
f 455/4/5 452/4/5 451/4/5
f 455/6/5 451/6/5 454/6/5
f 456/4/5 452/4/5 455/4/5
f 457/6/5 455/6/5 454/6/5
f 458/6/5 455/6/5 457/6/5
f 459/6/5 458/6/5 457/6/5
f 460/6/5 458/6/5 459/6/5
f 462/6/5 460/6/5 459/6/5
f 463/6/5 460/6/5 462/6/5
f 465/4/5 462/4/5 461/4/5
f 466/6/5 463/6/5 462/6/5
f 466/4/5 462/4/5 465/4/5
f 467/4/5 464/4/5 463/4/5
f 467/6/5 463/6/5 466/6/5
f 468/4/5 464/4/5 467/4/5
f 469/6/5 467/6/5 466/6/5
f 470/6/5 467/6/5 469/6/5
f 471/6/5 470/6/5 469/6/5
f 472/6/5 470/6/5 471/6/5
f 474/6/5 472/6/5 471/6/5
f 475/6/5 472/6/5 474/6/5
f 477/6/5 475/6/5 474/6/5
f 477/4/5 474/4/5 473/4/5
f 478/4/5 476/4/5 475/4/5
f 478/6/5 475/6/5 477/6/5
f 479/4/5 477/4/5 473/4/5
f 479/4/5 478/4/5 477/4/5
f 480/4/5 476/4/5 478/4/5
f 480/4/5 478/4/5 479/4/5
f 483/8/5 482/8/5 481/8/5
f 484/8/5 482/8/5 483/8/5
f 485/8/5 482/8/5 484/8/5
f 486/8/5 482/8/5 485/8/5
f 487/8/5 483/8/5 481/8/5
f 488/8/5 483/8/5 487/8/5
f 489/8/5 482/8/5 486/8/5
f 490/8/5 482/8/5 489/8/5
f 491/8/6 492/8/6 493/8/6
f 493/8/6 492/8/6 494/8/6
f 491/8/6 493/8/6 495/8/6
f 495/8/6 493/8/6 496/8/6
f 494/8/6 492/8/6 497/8/6
f 497/8/6 492/8/6 498/8/6
f 499/6/6 500/6/6 501/6/6
f 501/6/6 500/6/6 502/6/6
f 503/6/6 504/6/6 505/6/6
f 505/6/6 504/6/6 506/6/6
f 506/6/6 504/6/6 507/6/6
f 507/6/6 504/6/6 508/6/6
f 508/6/6 504/6/6 509/6/6
f 509/6/6 504/6/6 510/6/6
f 511/4/6 512/4/6 513/4/6
f 513/4/6 512/4/6 514/4/6
f 511/4/6 513/4/6 515/4/6
f 513/2/6 514/2/6 515/2/6
f 514/4/6 512/4/6 516/4/6
f 515/2/6 514/2/6 516/2/6
f 511/4/6 515/4/6 517/4/6
f 515/4/6 516/4/6 517/4/6
f 516/4/6 512/4/6 518/4/6
f 517/4/6 516/4/6 518/4/6
